<mxfile host="app.diagrams.net" agent="Mozilla/5.0 (Windows NT 10.0; Win64; x64) AppleWebKit/537.36 (KHTML, like Gecko) Chrome/126.0.0.0 Safari/537.36 Edg/126.0.0.0" version="24.9.2">
  <diagram name="第 1 页" id="m10ZVN8EORpGiVfjtNTv">
    <mxGraphModel dx="1557" dy="790" grid="1" gridSize="10" guides="1" tooltips="1" connect="1" arrows="1" fold="1" page="1" pageScale="1" pageWidth="827" pageHeight="1169" math="0" shadow="0">
      <root>
        <mxCell id="0" />
        <mxCell id="1" parent="0" />
        <mxCell id="WeYQ9zJhQNprv5HXiRQ5-29" style="edgeStyle=orthogonalEdgeStyle;rounded=0;orthogonalLoop=1;jettySize=auto;html=1;exitX=0.5;exitY=1;exitDx=0;exitDy=0;entryX=0.5;entryY=0;entryDx=0;entryDy=0;" parent="1" source="WeYQ9zJhQNprv5HXiRQ5-5" target="WeYQ9zJhQNprv5HXiRQ5-28" edge="1">
          <mxGeometry relative="1" as="geometry" />
        </mxCell>
        <mxCell id="WeYQ9zJhQNprv5HXiRQ5-5" value="打开登录页面" style="rounded=0;whiteSpace=wrap;html=1;" parent="1" vertex="1">
          <mxGeometry x="320" y="40" width="120" height="60" as="geometry" />
        </mxCell>
        <mxCell id="WeYQ9zJhQNprv5HXiRQ5-13" value="" style="edgeStyle=orthogonalEdgeStyle;rounded=0;orthogonalLoop=1;jettySize=auto;html=1;" parent="1" source="WeYQ9zJhQNprv5HXiRQ5-11" target="WeYQ9zJhQNprv5HXiRQ5-12" edge="1">
          <mxGeometry relative="1" as="geometry" />
        </mxCell>
        <mxCell id="WeYQ9zJhQNprv5HXiRQ5-14" value="验证不通过" style="edgeLabel;html=1;align=center;verticalAlign=middle;resizable=0;points=[];" parent="WeYQ9zJhQNprv5HXiRQ5-13" vertex="1" connectable="0">
          <mxGeometry x="-0.0024" y="-1" relative="1" as="geometry">
            <mxPoint as="offset" />
          </mxGeometry>
        </mxCell>
        <mxCell id="WeYQ9zJhQNprv5HXiRQ5-18" value="" style="edgeStyle=orthogonalEdgeStyle;rounded=0;orthogonalLoop=1;jettySize=auto;html=1;" parent="1" source="WeYQ9zJhQNprv5HXiRQ5-11" edge="1">
          <mxGeometry relative="1" as="geometry">
            <mxPoint x="380" y="440" as="targetPoint" />
          </mxGeometry>
        </mxCell>
        <mxCell id="WeYQ9zJhQNprv5HXiRQ5-19" value="验证通过" style="edgeLabel;html=1;align=center;verticalAlign=middle;resizable=0;points=[];" parent="WeYQ9zJhQNprv5HXiRQ5-18" vertex="1" connectable="0">
          <mxGeometry x="-0.1106" y="-1" relative="1" as="geometry">
            <mxPoint as="offset" />
          </mxGeometry>
        </mxCell>
        <mxCell id="WeYQ9zJhQNprv5HXiRQ5-22" value="" style="edgeStyle=orthogonalEdgeStyle;rounded=0;orthogonalLoop=1;jettySize=auto;html=1;" parent="1" source="WeYQ9zJhQNprv5HXiRQ5-11" target="WeYQ9zJhQNprv5HXiRQ5-21" edge="1">
          <mxGeometry relative="1" as="geometry" />
        </mxCell>
        <mxCell id="WeYQ9zJhQNprv5HXiRQ5-11" value="系统验证" style="rhombus;whiteSpace=wrap;html=1;" parent="1" vertex="1">
          <mxGeometry x="320" y="270" width="120" height="80" as="geometry" />
        </mxCell>
        <mxCell id="WeYQ9zJhQNprv5HXiRQ5-16" style="edgeStyle=orthogonalEdgeStyle;rounded=0;orthogonalLoop=1;jettySize=auto;html=1;exitX=0;exitY=0.5;exitDx=0;exitDy=0;entryX=0;entryY=0.5;entryDx=0;entryDy=0;" parent="1" source="WeYQ9zJhQNprv5HXiRQ5-12" target="WeYQ9zJhQNprv5HXiRQ5-28" edge="1">
          <mxGeometry relative="1" as="geometry">
            <mxPoint x="320" y="190" as="targetPoint" />
            <Array as="points">
              <mxPoint x="110" y="470" />
              <mxPoint x="110" y="190" />
            </Array>
          </mxGeometry>
        </mxCell>
        <mxCell id="WeYQ9zJhQNprv5HXiRQ5-12" value="提示错误" style="whiteSpace=wrap;html=1;" parent="1" vertex="1">
          <mxGeometry x="130" y="440" width="120" height="60" as="geometry" />
        </mxCell>
        <mxCell id="WeYQ9zJhQNprv5HXiRQ5-24" value="" style="edgeStyle=orthogonalEdgeStyle;rounded=0;orthogonalLoop=1;jettySize=auto;html=1;" parent="1" source="WeYQ9zJhQNprv5HXiRQ5-21" target="WeYQ9zJhQNprv5HXiRQ5-23" edge="1">
          <mxGeometry relative="1" as="geometry" />
        </mxCell>
        <mxCell id="WeYQ9zJhQNprv5HXiRQ5-32" value="首次登录" style="edgeLabel;html=1;align=center;verticalAlign=middle;resizable=0;points=[];" parent="WeYQ9zJhQNprv5HXiRQ5-24" vertex="1" connectable="0">
          <mxGeometry x="0.0679" y="-1" relative="1" as="geometry">
            <mxPoint x="-1" as="offset" />
          </mxGeometry>
        </mxCell>
        <mxCell id="WeYQ9zJhQNprv5HXiRQ5-34" value="" style="edgeStyle=orthogonalEdgeStyle;rounded=0;orthogonalLoop=1;jettySize=auto;html=1;" parent="1" source="WeYQ9zJhQNprv5HXiRQ5-21" target="WeYQ9zJhQNprv5HXiRQ5-33" edge="1">
          <mxGeometry relative="1" as="geometry" />
        </mxCell>
        <mxCell id="WeYQ9zJhQNprv5HXiRQ5-35" value="非首次登录" style="edgeLabel;html=1;align=center;verticalAlign=middle;resizable=0;points=[];" parent="WeYQ9zJhQNprv5HXiRQ5-34" vertex="1" connectable="0">
          <mxGeometry x="-0.1134" y="-4" relative="1" as="geometry">
            <mxPoint as="offset" />
          </mxGeometry>
        </mxCell>
        <mxCell id="WeYQ9zJhQNprv5HXiRQ5-21" value="是否首次登录" style="rhombus;whiteSpace=wrap;html=1;" parent="1" vertex="1">
          <mxGeometry x="320" y="430" width="120" height="80" as="geometry" />
        </mxCell>
        <mxCell id="WeYQ9zJhQNprv5HXiRQ5-31" style="edgeStyle=orthogonalEdgeStyle;rounded=0;orthogonalLoop=1;jettySize=auto;html=1;exitX=1;exitY=0.5;exitDx=0;exitDy=0;entryX=1;entryY=0.5;entryDx=0;entryDy=0;" parent="1" source="WeYQ9zJhQNprv5HXiRQ5-23" target="WeYQ9zJhQNprv5HXiRQ5-28" edge="1">
          <mxGeometry relative="1" as="geometry">
            <Array as="points">
              <mxPoint x="640" y="600" />
              <mxPoint x="640" y="190" />
            </Array>
          </mxGeometry>
        </mxCell>
        <mxCell id="WeYQ9zJhQNprv5HXiRQ5-23" value="修改密码" style="whiteSpace=wrap;html=1;" parent="1" vertex="1">
          <mxGeometry x="490" y="570" width="120" height="60" as="geometry" />
        </mxCell>
        <mxCell id="WeYQ9zJhQNprv5HXiRQ5-30" style="edgeStyle=orthogonalEdgeStyle;rounded=0;orthogonalLoop=1;jettySize=auto;html=1;exitX=0.5;exitY=1;exitDx=0;exitDy=0;entryX=0.5;entryY=0;entryDx=0;entryDy=0;" parent="1" source="WeYQ9zJhQNprv5HXiRQ5-28" target="WeYQ9zJhQNprv5HXiRQ5-11" edge="1">
          <mxGeometry relative="1" as="geometry" />
        </mxCell>
        <mxCell id="WeYQ9zJhQNprv5HXiRQ5-28" value="账号、密码、验证码" style="shape=parallelogram;perimeter=parallelogramPerimeter;whiteSpace=wrap;html=1;fixedSize=1;" parent="1" vertex="1">
          <mxGeometry x="310" y="160" width="140" height="60" as="geometry" />
        </mxCell>
        <mxCell id="WeYQ9zJhQNprv5HXiRQ5-33" value="进入首页" style="whiteSpace=wrap;html=1;" parent="1" vertex="1">
          <mxGeometry x="320" y="570" width="120" height="60" as="geometry" />
        </mxCell>
      </root>
    </mxGraphModel>
  </diagram>
</mxfile>
